# xmcd
#
# Track frame offsets: 
#        150
#        11417
#        20542
#        34463
#        45173
#        58798
#        68378
#        82715
#        93674
#        104828
#        117885
#        126934
#        139102
#        148337
#        159329
#        170889
#        180761
#        191223
#        201581
#        210798
#        224503
#        236826
#        245663
#        256909
#
# Disc length: 3564 seconds
#
# Revision: 2
# Processed by: cddbd v1.5.2PL0 Copyright (c) Steve Scherf et al.
# Submitted via: ExactAudioCopy v1.0b3
#
DISCID=5e0dea18
DTITLE=The Stanley Brothers - 8 Classic Albums CD2
DYEAR=2010
DGENRE=Bluegrass
TTITLE0=how can we thank him for what he has done
TTITLE1=my lord's gonna set me free
TTITLE2=i'll meet you in church sunday morning
TTITLE3=wings of angels
TTITLE4=white dove
TTITLE5=that home far away
TTITLE6=the angel of death
TTITLE7=old daniel prayed
TTITLE8=he said if be lifted up
TTITLE9=are you afraid to die
TTITLE10=mother's footsteps guide me on
TTITLE11=this wicked path of sin
TTITLE12=highway of regret
TTITLE13=a little at a time
TTITLE14=choo choo comin'
TTITLE15=holiday pickin'
TTITLE16=carolina mountain home
TTITLE17=that happy night
TTITLE18=ridin' that midnight train
TTITLE19=another night
TTITLE20=beneath the maple
TTITLE21=ralph's banjo special
TTITLE22=trust each other
TTITLE23=gonna paint the town
EXTD=
EXTT0=
EXTT1=
EXTT2=
EXTT3=
EXTT4=
EXTT5=
EXTT6=
EXTT7=
EXTT8=
EXTT9=
EXTT10=
EXTT11=
EXTT12=
EXTT13=
EXTT14=
EXTT15=
EXTT16=
EXTT17=
EXTT18=
EXTT19=
EXTT20=
EXTT21=
EXTT22=
EXTT23=
PLAYORDER=
